<svg width="651" height="97" viewBox="0 0 651 97" fill="none" xmlns="http://www.w3.org/2000/svg">
<path d="M196.37 0C223.793 0.000125392 248.131 13.3205 263.349 33.8906C268.217 40.4706 268.217 49.5265 263.349 56.1064C248.131 76.6766 223.796 89.9999 196.37 90C168.944 90 144.608 76.6768 129.39 56.1064H129.392C124.525 49.5265 124.525 40.4706 129.392 33.8906C144.608 13.3204 168.947 0 196.37 0ZM197.495 24.0771C197.287 22.6637 195.25 22.6637 195.042 24.0771L193.075 37.4287L183.572 30.5938C182.433 29.7749 181.027 31.1849 181.844 32.3271L188.595 41.7676L171.823 43.8281C170.372 44.0064 170.372 46.1137 171.823 46.292L188.595 48.3516L181.844 57.792C181.027 58.9342 182.433 60.3442 183.572 59.5254L193.075 52.6904L195.042 66.042C195.25 67.4552 197.287 67.4552 197.495 66.042L199.462 52.6904L208.965 59.5254C210.104 60.3444 211.511 58.9343 210.694 57.792L203.942 48.3516L220.715 46.292C222.166 46.1136 222.166 44.0066 220.715 43.8281L203.942 41.7676L210.694 32.3271C211.511 31.1848 210.104 29.7746 208.965 30.5938L199.462 37.4277L197.495 24.0771Z" fill="#111111"></path>
<path d="M49.1155 33.8369C59.7434 19.4741 74.8155 8.64244 92.2838 3.41547C104.17 -0.139729 116.095 8.8916 116.095 21.3817V68.5129C116.095 81.0029 104.17 90.0343 92.2838 86.4791C74.8155 81.2521 59.7434 70.4204 49.1155 56.0549C44.2484 49.475 44.2484 40.4195 49.1155 33.8396V33.8369Z" fill="#111111"></path>
<path d="M3.67294 33.7246C3.78464 33.5719 3.899 33.4219 4.01337 33.2692C14.7609 18.9626 37.4076 26.6356 37.4076 44.5777V45.1725C37.4076 63.1146 14.7609 70.7876 4.01071 56.4811C3.89634 56.3311 3.78464 56.1784 3.67028 56.0256C-1.22343 49.4189 -1.22343 40.3313 3.67028 33.7246H3.67294Z" fill="#111111"></path>
<path d="M291 74.3401L296.223 69.132V17.4163L291 12.2082H314.273C328.108 12.2082 335.347 17.9645 335.347 26.6447C335.347 33.6803 331.04 38.8884 323.252 41.3554C333.239 42.6346 339.561 47.6599 339.561 56.066C339.561 66.3909 331.132 74.3401 315.189 74.3401H291ZM315.464 69.4061C325.909 69.4061 331.773 64.3808 331.773 56.2488C331.773 49.1219 326.184 44.0051 314.823 44.0051H303.828V69.4061H315.464ZM314.823 39.4366C322.061 39.4366 327.559 35.4163 327.559 28.1066C327.559 20.6143 321.969 17.1422 312.807 17.1422H303.828V39.4366H314.823Z" fill="#111111"></path>
<path d="M342.592 74.3401L347.814 69.132V38.066L340.851 33.863L355.327 29.0204V42.5432C358.626 32.9493 364.215 28.8376 370.171 28.8376C374.111 28.8376 376.768 31.0305 376.768 34.2285C376.768 36.8782 375.027 38.8884 372.003 38.8884C369.346 38.8884 367.605 36.9696 367.605 34.8681V34.6853C362.749 34.8681 357.985 39.7107 355.327 47.4772V69.132L360.55 74.3401H342.592Z" fill="#111111"></path>
<path d="M379.673 74.3401L384.896 69.132V37.9747L377.932 33.7716L392.409 29.0204V69.132L397.632 74.3401H379.673ZM388.286 21.8021C385.354 21.8021 383.063 19.6092 383.063 16.7767C383.063 13.8528 385.354 11.5686 388.286 11.5686C391.218 11.5686 393.509 13.8528 393.509 16.7767C393.509 19.6092 391.218 21.8021 388.286 21.8021Z" fill="#111111"></path>
<path d="M418.047 97C406.411 97 396.607 92.7056 396.607 84.4822C396.607 79.1827 401.097 75.1624 407.052 73.0609C402.471 71.9645 400.18 69.4975 400.18 66.2081C400.18 63.2843 402.196 60.7259 405.953 58.9898C401.463 56.1574 398.898 51.4975 398.898 45.9239C398.898 35.9645 407.419 28.8376 418.78 28.8376C421.804 28.8376 424.461 29.2944 426.752 30.0254C428.859 22.0761 432.799 19.4264 436.831 19.4264C439.671 19.4264 441.503 21.2538 441.503 23.5381C441.503 25.8223 439.854 27.467 437.564 27.467C435.914 27.467 434.54 26.5533 433.899 24.9086C431.7 25.6396 430.142 27.6497 428.859 30.8477C434.632 33.4975 437.838 38.5228 437.838 44.6447C437.838 54.8782 428.859 62.0964 417.956 62.0964C414.199 62.0964 410.992 61.4569 408.243 60.269C406.411 61.3655 405.678 62.5533 405.678 63.8325C405.678 66.0254 407.236 67.3046 412.367 67.9442L426.935 69.7716C436.647 70.9594 441.229 75.1624 441.229 81.7411C441.229 90.7868 431.974 97 418.047 97ZM419.33 92.4315C428.676 92.4315 435.273 88.2284 435.273 83.0203C435.273 78.8173 432.341 76.6244 425.469 75.802L410.259 73.9746C405.495 76.3503 403.021 79.4568 403.021 83.1117C403.021 89.2335 409.526 92.4315 419.33 92.4315ZM418.505 58.3503C425.469 58.3503 430.508 53.1421 430.508 45.2843C430.508 37.6091 425.561 32.5838 418.139 32.5838C411.267 32.5838 406.136 37.5178 406.136 45.1015C406.136 53.2335 411.175 58.3503 418.505 58.3503Z" fill="#111111"></path>
<path d="M443.98 74.3401L449.203 69.132V15.9543L442.239 11.7513L456.716 7V36.5127C460.839 31.8528 466.062 28.8376 472.476 28.8376C481.638 28.8376 487.685 34.2284 487.685 45.3756V69.132L493 74.3401H474.858L480.172 69.132V46.5634C480.172 37.7919 476.416 34.5025 469.727 34.5025C465.054 34.5025 460.839 36.2386 456.716 39.8934V69.2234L461.939 74.3401H443.98Z" fill="#111111"></path>
<path d="M511.518 75.0711C503.547 75.0711 499.332 70.6853 499.332 61.8223V33.7716H490.811V29.5685H499.332L506.479 14.0355H506.845V29.5685H521.414V33.7716H506.845V60.8173C506.845 66.8477 508.861 69.9543 513.9 69.9543C517.382 69.9543 520.039 69.0406 522.788 66.2995H523.155C521.872 71.1421 517.565 75.0711 511.518 75.0711Z" fill="#111111"></path>
<path d="M545.815 75.0711C532.163 75.0711 523.001 66.2081 523.001 52.3198C523.001 38.5228 532.988 28.8376 545.449 28.8376C557.818 28.8376 565.973 37.8832 565.973 50.6751V51.2234H530.606V51.5888C530.606 62.736 537.386 69.9543 547.923 69.9543C554.795 69.9543 559.926 67.0305 564.415 62.0964H564.782C563.224 69.2233 556.169 75.0711 545.815 75.0711ZM530.789 47.0203H558.643C558.093 39.5279 553.787 32.8579 545.266 32.8579C537.752 32.8579 531.98 38.4315 530.789 47.0203Z" fill="#111111"></path>
<path d="M575.331 97C570.108 97 567.634 94.2589 567.634 91.1523C567.634 88.5939 569.375 86.4924 572.032 86.4924C574.506 86.4924 576.064 88.1371 576.064 90.1472C576.064 91.2437 575.697 92.1574 574.873 93.0711C575.148 93.1624 575.423 93.1624 575.698 93.1624C577.988 93.1624 580.37 90.5127 582.753 84.4822L586.051 76.2589L568.001 34.7766L562.778 29.5685H580.828L575.606 34.7766L589.716 67.0305L602.544 34.7766L597.321 29.5685H612.714L607.491 34.7766L587.059 85.67C583.669 94.1675 580.37 97 575.331 97Z" fill="#111111"></path>
<path d="M630.842 75.0711C617.19 75.0711 608.028 66.2081 608.028 52.3198C608.028 38.5228 618.015 28.8376 630.476 28.8376C642.845 28.8376 651 37.8832 651 50.6751V51.2234H615.633V51.5888C615.633 62.736 622.413 69.9543 632.95 69.9543C639.822 69.9543 644.953 67.0305 649.442 62.0964H649.809C648.251 69.2233 641.196 75.0711 630.842 75.0711ZM615.816 47.0203H643.67C643.12 39.5279 638.814 32.8579 630.293 32.8579C622.779 32.8579 617.007 38.4315 615.816 47.0203Z" fill="#111111"></path>
</svg>