<svg width="232" height="40" viewBox="0 0 232 40" fill="none" xmlns="http://www.w3.org/2000/svg">
<g clip-path="url(#clip0_695_980)">
<path d="M53.5197 26.0177V14.1702H61.8583V16.7821H56.4016V18.7528H60.7717V21.2239H56.4016V23.4214H61.8583V26.0177H53.5197Z" fill="white"></path>
<path d="M72.5752 14.1624H77.3862C80.3862 14.1624 82.6382 16.2738 82.6382 20.1057C82.6382 23.9375 80.3941 26.0177 77.3862 26.0177H72.5752V14.1624ZM76.961 23.4214C78.6303 23.4214 79.5594 22.2327 79.5594 20.1057C79.5594 17.9786 78.6303 16.7586 76.9768 16.7586H75.5909V23.4214H76.961Z" fill="white"></path>
<path d="M96.2131 20.9972C96.2131 22.6707 96.7406 23.4527 98.0241 23.4527C99.3076 23.4527 99.8666 22.6316 99.8666 20.9815V14.1624H102.882V21.1848C102.882 24.0235 101.41 26.2054 98.0162 26.2054C94.6225 26.2054 93.1895 24.2503 93.1895 21.1848V14.1624H96.2131V20.9972Z" fill="white"></path>
<path d="M122.874 24.524C121.96 25.4154 120.401 26.1975 118.716 26.1975C115.716 26.1975 113.433 23.9296 113.433 20.1134C113.433 16.2972 115.716 13.998 118.716 13.998C121.33 13.998 122.803 15.3588 122.858 18.1271L120.157 18.6667C120.141 17.3607 119.614 16.7507 118.574 16.7507C117.307 16.7507 116.488 17.9707 116.488 20.1134C116.488 22.2561 117.401 23.4448 118.984 23.4448C120 23.4448 121 22.7175 121.724 22.0841L122.881 24.524H122.874Z" fill="#A6814F"></path>
<path d="M135.874 14.1702H139.386L143.126 26.0255H140.126L139.551 23.8828H135.693L135.094 26.0255H132.11L135.882 14.1702H135.874ZM136.417 21.6697H138.819L137.622 17.134L136.409 21.6697H136.417Z" fill="#A6814F"></path>
<path d="M153.118 14.1702H158.417C160.457 14.1702 162.228 15.5621 162.228 18.5651C162.228 21.2865 160.457 22.9053 158.417 22.9053H156.134V26.0255H153.11V14.1702H153.118ZM156.142 16.7665V20.309H157.756C158.543 20.309 159.173 19.613 159.173 18.5494C159.173 17.4859 158.543 16.7665 157.756 16.7665H156.142Z" fill="#A6814F"></path>
<path d="M175.614 14.1702H172.598V26.0255H175.614V14.1702Z" fill="#A6814F"></path>
<path d="M191.85 17.1653V26.0177H188.835V17.1653H186.008V14.1702H194.661V17.1653H191.85Z" fill="#A6814F"></path>
<path d="M206.929 14.1702H210.441L214.181 26.0255H211.181L210.606 23.8828H206.748L206.149 26.0255H203.165L206.937 14.1702H206.929ZM207.472 21.6697H209.874L208.677 17.134L207.464 21.6697H207.472Z" fill="#A6814F"></path>
<path d="M224.173 26.0177V14.1702H227.196V23.4214H232V26.0177H224.173Z" fill="#A6814F"></path>
<path d="M22.9134 23.3665C18.3228 23.3665 13.7244 23.2648 9.14173 23.4056C6.62205 23.4838 4.11024 23.9373 1.6063 24.2892C0.023622 24.516 0.015748 24.5551 0.015748 22.9833C0.015748 20.8406 0.023622 18.69 0 16.5473C0 15.9295 0.141732 15.6949 0.84252 15.7966C4.95276 16.3909 9.07086 16.7585 13.2362 16.7037C21.3386 16.5942 29.6693 16.649 37.7638 16.6568C39.2126 16.6568 39.1968 16.6724 39.1968 18.0879C39.1968 19.5033 39.1654 21.1455 39.2047 22.5688C39.2205 23.2101 39 23.3899 38.3701 23.3899C33.2126 23.3665 28.0551 23.3743 22.8976 23.3743" fill="white"></path>
<path d="M0.685039 0.102002C1.98425 0.610311 2.49606 0.782354 3.63779 1.24374C4.55118 1.61129 5.44882 1.98666 6.3622 2.34638C6.65354 2.46368 6.94488 2.57317 7.23622 2.68265C7.55118 2.79995 7.84252 2.83905 8.25984 2.83905C8.55905 2.83905 8.85039 2.83905 9.14961 2.83905C14.8268 2.85469 20.4961 2.86251 26.1732 2.83905C26.9685 2.83905 27.2126 3.06583 27.189 3.84785C27.189 5.48226 27.189 6.7804 27.189 8.59467C27.189 9.31412 26.9764 9.54873 26.2835 9.54873C21.2598 9.53309 14.5591 9.54873 9.53543 9.54873C8.74803 9.54873 7.92913 9.65821 6.33858 9.20464C3.95276 8.51647 2.9685 8.19584 2.0315 7.91432C1.85039 7.8674 1.51968 7.76574 1.34646 7.711C-0.149606 7.24961 0.015748 7.39819 0 5.928C0 4.23885 0.00787401 2.4324 0 0.743253C0 -0.0856809 0.165354 -0.085681 0.685039 0.102002Z" fill="white"></path>
<path d="M0.684633 39.8983C1.98384 39.39 2.49566 39.2179 3.63739 38.7643C4.55077 38.3968 5.44841 38.0214 6.3618 37.6617C6.65314 37.5444 6.94447 37.4349 7.23581 37.3254C7.55077 37.2081 7.84211 37.169 8.25943 37.169C8.55865 37.169 8.84999 37.169 9.1492 37.169C14.8264 37.1534 20.4957 37.1456 26.1728 37.169C26.9681 37.169 27.2122 36.9423 27.1886 36.1602C27.1886 34.5258 27.1886 33.2277 27.1886 31.4134C27.1886 30.694 26.976 30.4594 26.2831 30.4594C21.2594 30.475 14.5586 30.4594 9.53502 30.4594C8.74762 30.4594 7.92873 30.3499 6.33818 30.8034C3.95235 31.4916 2.9681 31.8122 2.03109 32.0938C1.84999 32.1407 1.51928 32.2423 1.34605 32.2971C-0.150013 32.7507 0.0153413 32.6021 -0.000406688 34.0723C-0.0082807 35.7614 -0.000406688 37.5679 -0.000406688 39.257C-0.000406688 40.0859 0.157074 40.0859 0.684633 39.8983Z" fill="#A6814F"></path>
</g>
<defs>
<clipPath id="clip0_695_980">
<rect width="232" height="40" fill="white"></rect>
</clipPath>
</defs>
</svg>