<svg height="38" viewBox="0 0 170 38" width="170" xmlns="http://www.w3.org/2000/svg">
<defs>
<radialGradient cx="56.039%" cy="99.307%" fx="56.039%" fy="99.307%" gradientTransform="matrix(1 0 0 .62225 0 .375)" id="a" r="160.388%">
<stop offset="0%" stop-color="#8DC63F"></stop>
<stop offset="100%" stop-color="#0095DA"></stop>
</radialGradient>
</defs>
<g fill="none" fill-rule="nonzero">
<g fill="#475F6B">
<path d="M37.322 30.593h7.368v3.078H33.806V15.486h3.516zM58.414 30.782c-1.637 2.131-3.756 3.268-6.404 3.268-3.468 0-6.742-2.131-6.742-6.867 0-4.31 2.84-6.772 6.549-6.772 3.467 0 4.912 2.036 5.2 2.415 1.06 1.468 1.301 3.741 1.35 5.02h-9.728c.385 2.036 1.637 3.173 3.756 3.173 2.167 0 3.034-1.231 3.419-1.752l2.6 1.515zm-3.563-5.162c-.29-1.989-1.541-2.7-2.938-2.7-1.685 0-2.841.948-3.226 2.7h6.164zM76.232 20.837v1.847c.386-.663 1.253-2.178 4.238-2.084v3.079c-.674.047-1.878.047-2.841.757-1.348.995-1.348 2.32-1.348 4.452v4.736h-3.082V20.837h3.033zM81.385 20.837h3.179v1.516a3.243 3.243 0 0 1 1.01-.995c.771-.568 2.024-.9 3.035-.9 1.493 0 2.793.663 3.467 1.563.819 1.09.819 2.463.819 4.12v7.53h-3.13v-6.535c0-.948 0-1.61-.097-1.942-.289-1.137-1.107-1.705-2.167-1.705-1.011 0-1.974.568-2.408 1.42-.481.948-.481 2.274-.481 3.221v5.588h-3.227v-12.88zM126.171 20.837h3.13v1.184c.482-.52 1.541-1.563 3.612-1.563 3.853 0 5.972 3.41 5.972 6.914 0 3.836-2.456 6.678-5.972 6.678-1.83 0-2.937-.853-3.612-1.42v5.256h-3.13V20.837zm6.309 10.324c1.54 0 3.178-1.042 3.178-3.93 0-3.22-2.311-3.837-3.226-3.837-1.445 0-3.082 1.042-3.179 3.789-.048 2.605 1.445 3.978 3.227 3.978zM143.604 16.196v2.794h-3.13v-2.794h3.13zm0 4.641v12.834h-3.13V20.837h3.13zM148.95 23.205v5.635c0 1.61 0 2.274 1.492 2.274.482 0 .867-.048 1.3-.142v2.604c-.963.142-1.589.19-2.31.19-.675 0-2.89 0-3.468-1.563-.193-.521-.193-1.326-.193-2.605V16.291h3.179v4.546h2.793v2.368h-2.793zM169.705 15.533v18.138h-3.178V15.533zM107.197 29.125c-.77.947-1.83 1.752-3.563 1.752-2.938 0-5.153-2.273-5.153-6.44 0-3.884 2.119-6.3 5.153-6.3 1.926 0 2.937 1.043 3.323 1.61.24.38.433.759.53 1.09h3.707c-.481-1.468-1.878-5.825-7.657-5.825-4.719 0-8.812 3.315-8.812 9.472 0 6.061 3.756 9.566 8.668 9.566 3.034 0 5.105-1.326 6.405-2.794.819-.995 1.348-2.131 1.445-3.031h-3.612c-.096.331-.24.615-.434.9zM123.86 31.587v-6.82c0-1.373-.048-2.604-1.59-3.504-1.155-.663-2.696-.805-3.948-.805-.867 0-3.95 0-5.25 2.226-.433.758-.481 1.279-.53 1.894h3.227c0-.284.049-.615.337-.947.338-.426 1.012-.805 2.36-.805 2.167 0 2.215 1.326 2.215 1.942-1.155.379-1.348.426-4.093.947-1.252.237-3.275.663-4.238 2.51-.24.52-.433 1.09-.433 1.752 0 2.226 1.782 4.025 4.767 4.025 1.83 0 3.227-.757 3.901-1.326 0 .19.048.71.096.995h3.757c-.578-.805-.578-1.137-.578-2.084zm-3.179-2.889c0 .38 0 .758-.192 1.137-.337.758-1.493 1.468-3.082 1.468-1.252 0-2.12-.52-2.12-1.515 0-1.374 1.494-1.61 2.65-1.753 1.396-.236 2.118-.473 2.744-.757v1.42zM70.935 31.587v-6.82c0-1.373-.048-2.604-1.589-3.504-1.156-.663-2.697-.805-3.949-.805-.818 0-3.949 0-5.249 2.226-.433.758-.482 1.279-.53 1.894h3.227c0-.284.048-.615.337-.947.337-.426 1.011-.805 2.36-.805 2.167 0 2.215 1.326 2.215 1.942-1.156.379-1.349.426-4.093.947-1.253.237-3.275.663-4.238 2.51-.241.52-.434 1.09-.434 1.752 0 2.226 1.782 4.025 4.768 4.025 1.83 0 3.226-.757 3.9-1.326 0 .19.049.71.097.995h3.756c-.578-.805-.578-1.137-.578-2.084zm-3.178-2.889c0 .38 0 .758-.193 1.137-.337.758-1.493 1.468-3.082 1.468-1.252 0-2.119-.52-2.119-1.515 0-1.374 1.493-1.61 2.649-1.753 1.445-.236 2.119-.473 2.745-.757v1.42zM164.263 31.587v-6.82c0-1.373-.048-2.604-1.589-3.504-1.156-.663-2.697-.805-3.949-.805-.866 0-3.948 0-5.249 2.226-.433.758-.481 1.279-.53 1.894h3.227c0-.284.048-.615.337-.947.337-.426 1.011-.805 2.36-.805 2.167 0 2.215 1.326 2.215 1.942-1.156.379-1.348.426-4.093.947-1.252.237-3.275.663-4.238 2.51-.24.52-.433 1.09-.433 1.752 0 2.226 1.781 4.025 4.767 4.025 1.83 0 3.227-.757 3.9-1.326 0 .19.049.71.097.995h3.756c-.578-.805-.578-1.137-.578-2.084zm-3.13-2.889c0 .38 0 .758-.192 1.137-.337.758-1.493 1.468-3.082 1.468-1.253 0-2.12-.52-2.12-1.515 0-1.374 1.494-1.61 2.65-1.753 1.396-.236 2.118-.473 2.744-.757v1.42z"></path>
</g>
<path d="M15.314 12.928a1.163 1.163 0 0 0-1.637-.047c-.482.426-.482 1.137-.049 1.61 1.108 1.658 5.009 4.641 4.768 10.087v.19c-.145 4.12-2.552 6.677-4.238 8.335-2.119-2.605-7.223-7.057-6.934-14.776v-.284C7.56 9.756 13.82 5.73 15.699 3.315c.723-.663.77-1.752.096-2.463a1.78 1.78 0 0 0-2.504-.094S.578 10.892.337 17.806v.284C0 25.005 11.895 36.04 11.895 36.04a1.78 1.78 0 0 0 2.504.094s8.331-6.63 8.524-11.223v-.19c.192-4.546-7.61-11.791-7.61-11.791z" fill="url(#a)"></path>
</g>
</svg>