<svg xmlns="http://www.w3.org/2000/svg" width="131" height="40" viewBox="0 0 131 40">
    <g fill="none" fill-rule="evenodd">
        <path fill="#4F5966" d="M48.635 13.331c.038.331.068.663.116.993.61 4.205 5.402 4.91 7.806 2.981 1.523-1.222 1.916-2.872 1.72-4.722-.342-3.228-3.307-4.88-6.237-4.062-2.123.592-3.374 2.401-3.405 4.81m11.963-.025c.036 3.421-1.943 6.066-5.147 6.885-3.124.798-6.361-.33-7.97-2.796-1.9-2.914-1.532-7.821 1.902-10.002 3.5-2.224 8.723-1.257 10.555 2.716.469 1.016.664 2.086.66 3.197M69.497 14.597c-.1.208-.173.344-.233.487-.693 1.639-1.398 3.273-2.067 4.923-.155.384-.386.426-.725.437-.333.01-.457-.147-.568-.44-1.118-2.935-2.25-5.865-3.374-8.797-.05-.132-.08-.273-.149-.517.756 0 1.449-.013 2.14.017.09.004.2.224.248.363.591 1.699 1.173 3.4 1.757 5.102l.19.538c.107-.242.174-.382.23-.526.629-1.633 1.27-3.26 1.87-4.903.137-.372.35-.392.647-.381.291.01.55-.043.7.37.585 1.613 1.216 3.21 1.832 4.811.072.19.153.376.287.7.326-.973.603-1.813.888-2.65.35-1.028.714-2.05 1.059-3.08.09-.27.224-.392.508-.384.608.017 1.217.005 1.902.005-.066.24-.097.407-.157.562-1.122 2.918-2.25 5.833-3.37 8.75-.105.277-.211.483-.56.458-.321-.023-.572-.012-.735-.416-.656-1.62-1.357-3.221-2.043-4.829-.075-.175-.159-.345-.277-.6M47.231 22.232c.794 0 1.504-.022 2.211.02.13.007.295.25.36.42 1.173 3.062 2.332 6.13 3.495 9.196.055.143.114.285.224.561.288-.807.521-1.49.774-2.164.957-2.555 1.924-5.105 2.875-7.661.108-.293.256-.392.555-.38.63.023 1.261.007 1.982.007-.054.244-.071.448-.145.627-1.803 4.383-3.614 8.763-5.413 13.148-.128.311-.28.447-.623.438-.34-.008-.529-.087-.675-.441-1.81-4.38-3.64-8.752-5.459-13.128-.075-.183-.098-.388-.16-.643M113.492 30.393c.037.018.076.056.116.056 1.553.007 3.107.01 4.66.015.301 0 .308-.2.27-.421-.114-.66-.451-1.156-1.034-1.476-.626-.345-1.301-.38-1.976-.28-1.129.165-1.947 1.036-2.036 2.106m6.795 1.536h-6.871c-.01 1.082.445 1.83 1.296 2.333.827.49 1.747.5 2.652.405.787-.083 1.561-.285 2.367-.439.03.171.068.402.11.632.177.973.23.777-.65 1.088-1.514.537-3.062.694-4.618.192-2.046-.661-3.268-2.535-3.173-4.73.058-1.34.383-2.546 1.37-3.493.796-.765 1.754-1.153 2.83-1.227.944-.064 1.877-.02 2.755.416 1.193.593 1.79 1.605 1.921 2.912.06.603.01 1.218.01 1.91M61.795 30.411h5.015c.075-1.187-.79-2.09-2.045-2.177-1.647-.115-2.84.742-2.97 2.177m6.23 3.77c.071.377.17.758.2 1.145.012.136-.11.37-.225.419-1.778.73-3.6.995-5.434.273-2.172-.854-2.914-2.805-2.855-4.778.013-.453.093-.914.21-1.352.488-1.835 2.091-3.163 3.957-3.215.76-.022 1.557.007 2.277.224 2.03.611 2.609 2.482 2.435 4.35-.049.523-.237.66-.739.65-1.862-.033-3.726-.014-5.589-.011-.61 0-.615.01-.496.603.235 1.174 1.143 1.99 2.344 2.148a7.532 7.532 0 0 0 3.585-.394c.072-.026.144-.054.218-.075.027-.007.06.006.112.013M73.352 28.155c.489-.738 1.125-1.267 1.951-1.368.785-.096 1.615-.16 2.38-.003 1.426.292 2.436 1.623 2.486 3.243.064 2.085.02 4.174.02 6.26 0 .045-.027.09-.049.157h-2.005v-.566c0-1.696.008-3.392-.001-5.088-.006-1.144-.564-2.016-1.467-2.337-1.386-.494-2.883.402-3.113 1.899-.086.559-.085 1.135-.09 1.703-.011 1.449-.003 2.897-.003 4.38h-2.063v-.536-6.067c0-.18 0-.359-.005-.538-.025-.884-.117-1.001-.984-1.206 0-.337-.024-.694.013-1.044.012-.114.163-.266.28-.305.19-.062.405-.051.61-.062 1.283-.07 1.669.202 2.04 1.478M101.59 34.956v.462c.008.987.008.987-.998 1.023-1.041.038-1.636-.278-1.831-.984-.05-.183-.07-.376-.115-.633-.088.08-.138.107-.163.15-.953 1.61-3.71 1.774-5.05 1.001-.927-.535-1.351-1.407-1.532-2.416-.085-.475-.102-.967-.105-1.452-.012-1.801-.005-3.603-.005-5.44h2.073c.008.187.022.361.022.535.002 1.625-.005 3.25.007 4.876.002.339.038.683.112 1.013.211.942.901 1.55 1.807 1.633.984.09 1.976-.449 2.359-1.352.16-.377.259-.81.266-1.219.03-1.64.012-3.283.012-4.925v-.561h2.097v.581l.001 6.242c0 .179-.002.359.02.535.095.769.195.863 1.024.931M122.243 33.543h2.04c.317.986 1.25 1.55 2.89 1.337a2.867 2.867 0 0 0 1.424-.63c.636-.55.445-1.435-.364-1.708-.731-.246-1.526-.313-2.289-.475-.7-.149-1.424-.246-2.085-.494-1.868-.698-1.65-2.73-.781-3.634.692-.72 1.582-1.044 2.562-1.16 1.272-.15 2.525-.077 3.675.53.839.442 1.375 1.093 1.361 2.148-.573 0-1.123.006-1.672-.007-.075-.002-.193-.088-.213-.156-.186-.628-.72-.827-1.291-.946-.73-.152-1.465-.153-2.163.156-.572.254-.815.623-.777 1.133.042.569.476.765.955.856.961.182 1.931.316 2.896.48.256.045.51.116.755.2.888.308 1.554.841 1.69 1.782.153 1.058-.098 1.999-1.063 2.664-.934.643-2.007.816-3.118.816-1.004 0-1.996-.091-2.903-.567-.95-.498-1.457-1.257-1.529-2.325M89.628 26.892v1.468h-2.201c-1.289 0-1.296 0-1.287 1.198.01 1.194-.052 2.395.075 3.579.154 1.433 1.052 1.953 2.562 1.642.322-.067.64-.157 1.01-.248l.22 1.511c-1.154.37-2.32.523-3.499.295-1.436-.279-2.378-1.378-2.44-2.854-.06-1.475-.038-2.954-.055-4.431-.003-.216-.022-.432-.035-.67l-1.992-.155v-1.335c.535 0 1.064-.02 1.59.007.361.019.463-.131.476-.435.03-.659.085-1.317.12-1.975.02-.337.155-.486.552-.488 1.414-.007 1.414-.022 1.414 1.28 0 .362.026.726-.007 1.085-.036.403.091.553.55.537.963-.034 1.928-.01 2.947-.01M82.872 17.889c0 .487.02.935-.016 1.38-.008.093-.22.243-.343.248-.66.023-1.33.077-1.978-.007-1.088-.14-1.767-.859-1.988-1.992a6.202 6.202 0 0 1-.12-1.165c-.008-3.522-.004-7.045-.004-10.567v-.453h2.203v.558c0 3.382 0 6.763.002 10.145 0 .25.005.503.053.747.185.95.715 1.288 1.767 1.152.096-.013.193-.021.424-.046M102.541 28.235c-.017-.34-.025-.689-.056-1.036-.029-.333.222-.349.437-.386 1.318-.23 2.067.158 2.648 1.393.471-.862 1.22-1.336 2.15-1.48.837-.129 1.671-.064 2.448.347.278.147.416.287.286.627-.169.444-.276.91-.386 1.288-.656-.143-1.272-.37-1.896-.395-1.526-.06-2.513.928-2.526 2.452-.014 1.611-.016 3.224.007 4.836.006.435-.12.595-.571.558-.479-.038-.963-.008-1.492-.008-.015-.242-.04-.443-.04-.643-.001-2.044 0-4.087.001-6.13v-.191c-.024-.927-.104-1.026-1.01-1.232"></path>
        <path fill="#0096D4" d="M20.14 16.889c-2.654 0-4.99 1.6-4.99 4.888 0 3.012 2.336 4.89 4.99 4.89 2.654 0 4.812-2.194 4.812-4.89 0-2.695-2.158-4.888-4.812-4.888"></path>
        <path fill="#0096D4" d="M0 1.86v35.86C0 38.98 1.023 40 2.286 40h35.53a2.283 2.283 0 0 0 2.286-2.28V2.28c0-1.26-1.023-2.28-2.286-2.28H2.29A2.286 2.286 0 0 0 0 2.283m30.013 32.91c-.152.224-.722.203-.777-.121-.545-3.227-1.253-6.899-2.508-9.852-.951 3.207-3.71 5.32-7.34 5.32-4.284 0-8.01-3.361-8.01-7.985 0-4.792 3.75-7.925 8.033-7.925.705 0 1.25.343 1.761.594-2.456-2.694-5.052-4.012-8.383-3.84-4.22.219-6.385 3.105-7.56 5.178-.158.281-.299.287-.59.16l-1.627-.872c-.232-.134-.313-.32-.152-.658 1.75-3.695 5.39-6.656 10.375-6.596 12.19.148 16.835 16.951 17.393 18.787 2.396-5.442 3.135-11.822 1.164-17.968-.132-.413.003-.634.465-.76l1.03-.32c.46-.113.725-.259.938.363 3.852 11.195-.808 21.512-4.212 26.495"></path>
    </g>
</svg>